<svg id="Capa_3" data-name="Capa 3" xmlns="http://www.w3.org/2000/svg" viewBox="0 0 642.01 227.28"><defs><style>.cls-1,.cls-3{fill:#fff;}.cls-1,.cls-2{stroke:#fff;stroke-miterlimit:10;stroke-width:0.75px;}.cls-2{fill:none;}.cls-3{font-size:84.85px;font-family:LucidaBright-Demi, Lucida Bright;font-weight:300;}</style></defs><path class="cls-1" d="M163.56,86a23.82,23.82,0,0,1-2.81-.16Z" transform="translate(-28.09 -28.09)"/><path class="cls-1" d="M108,119.86a17.84,17.84,0,0,0,10.25,2.35A23.16,23.16,0,0,1,108,119.86Zm14.07,42.21.47,0,.45,0Zm61.28-94.71v7.3h.9c.17-.28.33-.57.48-.85s.31-.57.45-.85.28-.6.42-.9.22-.49.31-.74.19-.52.27-.78.15-.38.21-.57c.12-.37.23-.77.33-1.15,0,0,0,0,0-.06a.32.32,0,0,1,0-.09c.08-.31.14-.61.2-.92,0,0,0,0,0-.08a1.73,1.73,0,0,0,.07-.31Zm9.73,152.33c16.44-6,28.63-23.75,35.42-48.78C213.77,208.82,197.38,217.88,193.07,219.69Z" transform="translate(-28.09 -28.09)"/><path class="cls-1" d="M182.88,101.23a52.28,52.28,0,0,0-26.4,4.07l-.28.12,0,0L135.8,114a22.19,22.19,0,0,1-17.56,8.24A17.84,17.84,0,0,1,108,119.86a3.29,3.29,0,0,1-.42-.21A19.93,19.93,0,0,1,98,109.21c-.12-.31-.23-.62-.34-.94s-.26-.81-.37-1.23-.15-.64-.22-1a.52.52,0,0,0,0-.11c0-.3-.1-.6-.14-.9,0,0,0-.09,0-.13,0-.35-.08-.71-.1-1.06s0-.73,0-1.11c0-10.74,9.62-19.45,21.5-19.45a22,22,0,0,1,2.7.16l39.81,2.33,2.81.16a24.62,24.62,0,0,0,14.59-4.71c.36-.26.69-.53,1-.8s.83-.7,1.22-1.07a1.06,1.06,0,0,0,.15-.15c.37-.35.72-.7,1.06-1.08l0,0s0,0,0,0l0,0c.17-.2.36-.41.52-.62s.37-.44.55-.67.46-.61.67-.92.53-.77.78-1.18h-.9v-7.3H187c.05-.32.11-.65.15-1,0-.16,0-.34.07-.51s0-.08,0-.12,0-.1,0-.15a1.45,1.45,0,0,0,0-.3c0-.26,0-.52.05-.77s0-.71,0-1.06C187.39,51,176.73,41,163.56,41a174.11,174.11,0,0,0-58.83,5h0c-29.25,5.64-51.18,29.22-51.18,57.45,0,32.43,29,58.72,64.7,58.72h1.1c.38,0,.74,0,1.11,0H121l.54,0h.08c.15,0,.3,0,.45,0l.47,0,.45,0,.64,0,.86-.07a68.79,68.79,0,0,0,25.28-7.15A20,20,0,0,1,163,145.83l.71-.13c.48-.08,1-.14,1.45-.19.23,0,.47,0,.73-.06.42,0,.88,0,1.35,0,11.12,0,20.13,8.27,20.13,18.45,0,.23,0,.48,0,.71s0,.46,0,.69a18.57,18.57,0,0,1-11.87,15.45l-.38.17q-17,7.69-34.53,14a575.52,575.52,0,0,1-82.94,22.69,112.89,112.89,0,0,0,62.43,35.34L192,220.08l.22-.07.27-.09.61-.23c4.31-1.81,20.7-10.87,35.42-48.78,0-.07,0-.13,0-.19a55.11,55.11,0,0,0,2.12-15.24C230.66,127.25,209.73,104,182.88,101.23Zm-31-48a8.39,8.39,0,0,1,13,7,7.71,7.71,0,0,1-.31,2.21,8.38,8.38,0,1,1-12.72-9.2Z" transform="translate(-28.09 -28.09)"/><path class="cls-2" d="M164.86,60.25a7.71,7.71,0,0,1-.31,2.21,8.35,8.35,0,1,1,.31-2.21Z" transform="translate(-28.09 -28.09)"/><path class="cls-1" d="M108,119.86a17.84,17.84,0,0,0,10.25,2.35A23.16,23.16,0,0,1,108,119.86Zm10.25-36.54,2.7.16A22,22,0,0,0,118.24,83.32Zm42.51,2.49a23.82,23.82,0,0,0,2.81.16ZM198,67.36a7.26,7.26,0,0,0,1.82.22,7.34,7.34,0,0,0,1.83-.22Zm-5,152.33c16.44-6,28.63-23.75,35.42-48.78C213.77,208.82,197.38,217.88,193.07,219.69Z" transform="translate(-28.09 -28.09)"/><path class="cls-2" d="M255,141.73A113.29,113.29,0,0,1,120.05,252.91L192,220.08l.22-.07.27-.09.61-.23c16.44-6,28.63-23.75,35.42-48.78,0-.07,0-.13,0-.19a55.11,55.11,0,0,0,2.12-15.24c0-28.23-20.93-51.44-47.78-54.25a52.28,52.28,0,0,0-26.4,4.07l-.28.12,0,0A92.25,92.25,0,0,0,135.8,114c-3.68,2.16-5.42,3.63-9.93,5.6a31.89,31.89,0,0,1-7.63,2.64A23.16,23.16,0,0,1,108,119.86a3.29,3.29,0,0,1-.42-.21A21.52,21.52,0,0,1,98,109.21c-.12-.31-.23-.62-.34-.94s-.26-.81-.37-1.23-.15-.64-.22-1a.52.52,0,0,0,0-.11c0-.3-.1-.6-.14-.9,0,0,0-.09,0-.13,0-.35-.08-.71-.1-1.06s0-.73,0-1.11c0-10.74,9.62-19.45,21.5-19.45l2.7.16,39.81,2.33a23.82,23.82,0,0,0,2.81.16,24.62,24.62,0,0,0,14.59-4.71c.36-.26.69-.53,1-.8s.83-.7,1.22-1.07a1.06,1.06,0,0,0,.15-.15c.37-.35.72-.7,1.06-1.08l0,0s0,0,0,0l0,0c.17-.2.36-.41.52-.62s.37-.44.55-.67.46-.61.67-.92.53-.77.78-1.18h13.42a8.09,8.09,0,0,1,8.09,8.08,8.19,8.19,0,0,1-.67,3.21,7.2,7.2,0,0,0-1.87-14.16,6.55,6.55,0,0,0-1.41.15v-.35a7.09,7.09,0,0,0,1.68.2,7.21,7.21,0,0,0,4.42-12.92c0,.2,0,.42,0,.63a8.08,8.08,0,0,1-6.25,7.86H187c.05-.32.11-.65.15-1,0-.16,0-.34.07-.51s0-.08,0-.12,0-.1,0-.15a1.45,1.45,0,0,0,0-.3c0-.26,0-.52.05-.77s0-.71,0-1.06C187.39,51,176.73,41,163.56,41a174.11,174.11,0,0,0-58.83,5h0c-29.25,5.64-51.18,29.22-51.18,57.45,0,32.43,29,58.72,64.7,58.72h1.1c.38,0,.74,0,1.11,0H121l.54,0h.08c.15,0,.3,0,.45,0l.47,0,.45,0,.64,0,.86-.07c11.21-.91,19.24-1.54,25.77-6.49,5-3.82,6.45-8.11,12.77-9.59l.71-.13c.48-.08,1-.14,1.45-.19l.73-.06c.42,0,.88,0,1.35,0,11.12,0,20.13,8.27,20.13,18.45,0,.23,0,.48,0,.71s0,.46,0,.69c-.63,6.84-5.72,12.13-11.87,15.45l-.38.17q-17,7.69-34.53,14a575.52,575.52,0,0,1-82.94,22.69A113.26,113.26,0,1,1,255,141.73Z" transform="translate(-28.09 -28.09)"/><path class="cls-1" d="M135.8,114a22.19,22.19,0,0,1-17.56,8.24,31.89,31.89,0,0,0,7.63-2.64C130.38,117.6,132.12,116.13,135.8,114Z" transform="translate(-28.09 -28.09)"/><path class="cls-1" d="M163,145.83c-6.32,1.48-7.73,5.77-12.77,9.59-6.53,5-14.56,5.58-25.77,6.49a68.79,68.79,0,0,0,25.28-7.15A20,20,0,0,1,163,145.83Z" transform="translate(-28.09 -28.09)"/><path class="cls-1" d="M210.7,64.57a7.22,7.22,0,0,1-7.22,7.22,7.09,7.09,0,0,1-1.68-.2V67.36h-.12a8.08,8.08,0,0,0,6.25-7.86c0-.21,0-.43,0-.63A7.17,7.17,0,0,1,210.7,64.57Z" transform="translate(-28.09 -28.09)"/><path class="cls-1" d="M200.6,66.68" transform="translate(-28.09 -28.09)"/><path class="cls-1" d="M197.67,74.4" transform="translate(-28.09 -28.09)"/><path class="cls-1" d="M201.8,67.36v4.23a7.18,7.18,0,0,1-5-4.23H198a7.26,7.26,0,0,0,1.82.22,7.34,7.34,0,0,0,1.83-.22Z" transform="translate(-28.09 -28.09)"/><path class="cls-1" d="M201.68,67.36a7.34,7.34,0,0,1-1.83.22,7.26,7.26,0,0,1-1.82-.22Z" transform="translate(-28.09 -28.09)"/><path class="cls-1" d="M210.43,79a7.2,7.2,0,0,1-5.35,7,8.19,8.19,0,0,0,.67-3.21,8.09,8.09,0,0,0-8.09-8.08h-.19a7.08,7.08,0,0,1,4.33-2.72,6.55,6.55,0,0,1,1.41-.15A7.21,7.21,0,0,1,210.43,79Z" transform="translate(-28.09 -28.09)"/><path class="cls-1" d="M201.8,71.59v.35a7.08,7.08,0,0,0-4.33,2.72H184.24c.17-.28.33-.57.48-.85s.31-.57.45-.85.3-.6.42-.9.22-.49.31-.74a6,6,0,0,0,.27-.78q.12-.29.21-.57c.12-.37.23-.77.33-1.15,0,0,0,0,0-.06a.32.32,0,0,1,0-.09c.08-.31.14-.61.2-.92,0,0,0,0,0-.08a1.73,1.73,0,0,0,.07-.31h9.81A7.18,7.18,0,0,0,201.8,71.59Z" transform="translate(-28.09 -28.09)"/><path class="cls-1" d="M187,67.36a1.73,1.73,0,0,1-.07.31s0,.06,0,.08c-.06.31-.12.61-.2.92a.32.32,0,0,0,0,.09s0,0,0,.06c-.1.38-.21.78-.33,1.15q-.09.28-.21.57t-.27.78c-.09.25-.2.5-.31.74s-.27.6-.42.9-.28.56-.45.85-.31.57-.48.85h-.9v-7.3Z" transform="translate(-28.09 -28.09)"/><text class="cls-3" transform="translate(226.91 142.81)">JM Scents</text></svg>