<?xml version="1.0" encoding="utf-8"?>
<!-- Generator: Adobe Illustrator 25.2.1, SVG Export Plug-In . SVG Version: 6.00 Build 0)  -->
<svg version="1.1" id="Capa_3" xmlns="http://www.w3.org/2000/svg" xmlns:xlink="http://www.w3.org/1999/xlink" x="0px" y="0px"
	 viewBox="0 0 226.8 227.3" style="enable-background:new 0 0 226.8 227.3;" xml:space="preserve">
<style type="text/css">
	.st0{fill:none;stroke:#000000;stroke-width:0.75;stroke-miterlimit:10;}
	.st1{fill:#1D1D1B;stroke:#000000;stroke-width:0.75;stroke-miterlimit:10;}
	.st2{fill:#FFFFFF;stroke:#000000;stroke-width:0.75;stroke-miterlimit:10;}
</style>
<line class="st0" x1="90.9" y1="55.3" x2="90.1" y2="55.2"/>
<line class="st0" x1="92.8" y1="55.4" x2="92.4" y2="55.4"/>
<path class="st1" d="M79.9,91.8c0.7,0.4,1.4,0.7,2.1,1c0.4,0.2,0.7,0.3,1.1,0.4c0.1,0.1,0.2,0.1,0.4,0.1c0.1,0,0.2,0.1,0.3,0.1
	c0.1,0,0.2,0.1,0.4,0.1c0.1,0,0.2,0.1,0.4,0.1c0,0,0.1,0,0.1,0c0.1,0,0.3,0.1,0.4,0.1c0.1,0,0.1,0,0.2,0.1c0.3,0.1,0.6,0.1,0.9,0.2
	c0.3,0,0.6,0.1,0.9,0.1c0,0,0,0,0.1,0c0,0,0,0,0,0c1,0.1,2,0.1,3,0C86.6,94.1,83.1,93.3,79.9,91.8z M165,191.6
	c0.1,0,0.2-0.1,0.2-0.1C165.1,191.5,165,191.6,165,191.6z"/>
<path class="st2" d="M224.4,134.9c-5.4,28.6-21.2,52.6-42.6,68.9c0,0,0,0,0,0c-1.3,1-2.6,1.9-4,2.9c-0.5,0.3-0.9,0.6-1.4,0.9
	c-0.9,0.6-1.8,1.2-2.8,1.8c-0.9,0.6-1.9,1.2-2.8,1.7c-0.5,0.3-1,0.6-1.4,0.8c0,0-0.1,0-0.1,0.1c-0.8,0.5-1.7,1-2.6,1.4
	c-0.3,0.1-0.5,0.3-0.8,0.4c-0.7,0.4-1.3,0.7-2,1.1c-0.1,0-0.1,0.1-0.2,0.1c-1,0.5-2.1,1-3.1,1.5c-0.5,0.2-1.1,0.5-1.6,0.7
	c-0.5,0.2-1,0.5-1.6,0.7c0,0,0,0-0.1,0c-0.8,0.3-1.5,0.6-2.3,0.9c-0.2,0.1-0.3,0.1-0.4,0.2c-0.8,0.3-1.6,0.6-2.4,0.9
	c-0.1,0-0.2,0.1-0.3,0.1c-1.5,0.6-3,1.1-4.6,1.6c-0.8,0.2-1.5,0.5-2.3,0.7c-0.4,0.1-0.9,0.3-1.3,0.4c-0.7,0.2-1.3,0.4-2,0.5
	c-15.8,4.1-32.7,4.9-49.8,1.6H92l0.1,0l0,0l71.7-32.7l0.2-0.1l0.3-0.1l0.6-0.2c0.3-0.1,0.7-0.3,1.1-0.5
	c15.8-6.3,27.6-23.7,34.2-47.9c0-0.1,0.1-0.3,0.2-0.4v-0.2c1.4-5,2.1-10.1,2.1-15.2c0-28.2-20.9-51.5-47.8-54.2
	c-9-1-18.1,0.5-26.4,4.1l-0.3,0.1l-0.4,0.2c-7,2-13.7,4.8-20,8.4c0,0-0.1,0-0.1,0.1c-0.2,0.1-0.4,0.2-0.6,0.4
	c-1.5,0.9-2.7,1.7-4,2.5c-1.1,0.6-2.2,1.3-3.6,2c-0.3,0.1-0.5,0.3-0.8,0.4c-0.2,0.1-0.5,0.2-0.7,0.3h-0.1c-0.3,0.1-0.6,0.3-0.8,0.4
	c-0.5,0.2-1.1,0.5-1.6,0.7s-1.1,0.4-1.7,0.6c-1.1,0.4-2.3,0.7-3.4,0.9c-1,0.1-2.1,0-3.1-0.1c1,0.1,2,0.1,3,0c-1,0-2-0.1-3-0.2
	c0,0,0,0,0,0c-0.7-0.1-1.4-0.2-2.1-0.4c-0.1,0-0.3-0.1-0.4-0.1c-0.2,0-0.3-0.1-0.5-0.1c-0.1,0-0.2,0-0.4-0.1c-0.1,0-0.2-0.1-0.3-0.1
	c-0.3-0.1-0.5-0.2-0.8-0.3c0,0-0.1,0-0.1,0c-0.9-0.3-1.8-0.6-2.6-1c-0.1-0.1-0.3-0.1-0.4-0.2c-1.3-0.6-2.5-1.4-3.7-2.3
	c0,0,0,0-0.1-0.1c-0.1-0.1-0.2-0.2-0.3-0.2c-0.1-0.1-0.2-0.2-0.3-0.2c-0.4-0.4-0.8-0.7-1.1-1.1c-0.4-0.5-0.9-0.9-1.3-1.4
	c-0.2-0.2-0.4-0.4-0.5-0.7c-0.1-0.2-0.3-0.4-0.4-0.6c-0.9-1.4-1.7-3-2.3-4.7c-0.1-0.4-0.3-0.8-0.4-1.2C69,78.9,69,78.3,69,78v-0.1
	c0-0.3-0.1-0.6-0.1-0.9v-0.1c0-0.3-0.1-0.7-0.1-1.1v-1.1c0-5,2.1-9.6,5.6-13.1c0.7-0.7,1.4-1.3,2.2-1.9c3.7-2.8,8.5-4.4,13.7-4.4
	h0.8l1.2,0.1c0,0,0,0,0.1,0c0.2,0,0.3,0,0.5,0.1l39.8,2.3c0.9,0.1,1.9,0.2,2.8,0.2c5.3,0,10.5-1.7,14.7-4.8c0.3-0.3,0.6-0.5,1-0.8
	c0.4-0.3,0.8-0.7,1.2-1.1c0,0,0.1-0.1,0.2-0.1c0.4-0.4,0.7-0.7,1.1-1.1c0.2-0.2,0.3-0.4,0.5-0.6c0.2-0.2,0.3-0.4,0.5-0.7
	s0.4-0.5,0.7-0.9c0.3-0.4,0.5-0.8,0.8-1.2h13.4c4.5,0,8.1,3.6,8.1,8.1c0,1.1-0.2,2.2-0.7,3.2c4-0.5,6.8-4.1,6.3-8.1
	c-0.4-3.4-3.1-5.9-6.3-6.3c2.2-0.5,4-1.9,4.9-3.9c0.2-0.3,0.3-0.7,0.4-1c1-2.8,0.1-6.1-2.4-8v1.5c0,0.2,0,0.4-0.1,0.6
	c-0.6,3.1-2.9,5.7-6.1,6.4c-0.3,0.1-0.7,0.1-1,0.2h-1.6c-0.3,0-0.7-0.1-1-0.2h-11c0.1-0.3,0.2-0.7,0.2-1c0.1-0.2,0.1-0.5,0.1-0.5
	v-0.6c0,0,0-0.4,0-0.8v-1.1c-14.1-3-20.2-8.1-23.2-12.5c-1.3-1.9-4.1-6.9-9.9-9.3c-2.2-0.9-4.3-1.1-5.6-1.3
	c-22.8-3-43.9,5.6-43.9,5.6c-29.2,5.6-51.2,29.2-51.2,57.5c0,4,0.4,7.9,1.3,11.7c0.1,0.5,0.2,1.1,0.4,1.6c0.1,0.5,0.2,0.9,0.4,1.4
	c0.1,0.5,0.3,0.9,0.4,1.4c0.2,0.8,0.5,1.5,0.8,2.3c0.1,0.4,0.3,0.8,0.4,1.1c0,0.1,0,0.1,0.1,0.2c0.1,0.3,0.2,0.6,0.3,0.9
	c0.1,0.1,0.1,0.2,0.1,0.3v0.1c0.1,0.2,0.2,0.4,0.3,0.7c0.2,0.4,0.3,0.7,0.5,1.1c0.2,0.4,0.3,0.7,0.5,1.1c0,0.1,0.1,0.2,0.2,0.3
	c0.1,0.2,0.2,0.5,0.4,0.7c0.2,0.3,0.4,0.7,0.5,1c0,0.1,0.1,0.2,0.1,0.3c0.2,0.3,0.3,0.6,0.5,0.9s0.3,0.5,0.5,0.8
	c0.1,0.1,0.2,0.3,0.2,0.4c0.1,0.1,0.1,0.2,0.2,0.4c0,0,0,0.1,0.1,0.1c0,0.1,0.1,0.1,0.1,0.2c0.2,0.3,0.4,0.7,0.6,1
	c0.1,0.1,0.1,0.2,0.2,0.3c0.1,0.1,0.2,0.3,0.3,0.4l0.1,0.1c0.3,0.4,0.5,0.8,0.8,1.2c0.1,0.1,0.1,0.2,0.2,0.2
	c0.2,0.2,0.3,0.4,0.5,0.6c0.2,0.2,0.3,0.4,0.5,0.7c0,0,0,0.1,0.1,0.1c0.1,0.1,0.2,0.3,0.3,0.4c0.2,0.2,0.4,0.5,0.6,0.8
	c0.1,0.1,0.1,0.2,0.2,0.2c0.1,0.1,0.2,0.2,0.3,0.3c0.2,0.2,0.4,0.4,0.5,0.6c0.1,0.1,0.1,0.2,0.2,0.2c6,7,13.7,12.8,22.6,16.7
	c0.5,0.2,1.1,0.5,1.6,0.7c0.5,0.2,1.1,0.4,1.6,0.7c0.5,0.2,1.1,0.4,1.7,0.6c0.5,0.2,1,0.4,1.5,0.5c0.2,0.1,0.3,0.1,0.5,0.2
	c0.5,0.2,1,0.3,1.5,0.4c0.5,0.2,1,0.3,1.5,0.4l0.6,0.1c0.5,0.1,1,0.2,1.4,0.4c0.5,0.1,0.9,0.2,1.4,0.3c0.3,0.1,0.7,0.1,1,0.2
	c0.3,0.1,0.7,0.2,1,0.2c0.5,0.1,1,0.2,1.5,0.3c0.3,0,0.6,0.1,1,0.2c0.4,0.1,0.8,0.1,1.3,0.2c0.6,0.1,1.2,0.2,1.8,0.2
	c0.5,0.1,1.1,0.1,1.6,0.2c0.6,0,1.2,0.1,1.8,0.1c1.4,0.1,2.8,0.1,4.2,0.1h5.4l0.9-0.1c1.7-0.1,3.4-0.4,5.2-0.6
	c8.6-0.8,15.1-1.9,20.6-6c5-3.8,6.5-8.1,12.8-9.6c1-0.2,1.9-0.3,2.9-0.4h1.4c3.3,0,6.5,0.7,9.2,2c0.2,0.1,0.3,0.1,0.5,0.2
	c0,0,0.1,0,0.2,0.1c0.2,0.1,0.4,0.2,0.6,0.3c0,0,0,0,0.1,0c0.2,0.1,0.4,0.2,0.5,0.3c0.1,0,0.2,0.1,0.3,0.2c0,0,0.1,0,0.1,0.1
	c0.1,0,0.1,0.1,0.2,0.1c0.2,0.1,0.4,0.3,0.6,0.4c0.2,0.1,0.3,0.2,0.5,0.4c0.2,0.1,0.3,0.2,0.5,0.4c0.1,0.1,0.2,0.2,0.3,0.3l1.5,1.5
	c0.2,0.2,0.4,0.4,0.6,0.6c0.3,0.4,0.6,0.7,0.9,1.1c0.5,0.7,1,1.5,1.4,2.3c1.3,2.4,2,5.1,2,8v1.4c-0.6,6.8-5.7,12.1-11.9,15.4
	l-0.4,0.2c-11.3,5.1-22.8,9.8-34.5,14c-27,9.6-54.8,17.2-82.9,22.7c-18.8-20.8-29.2-47.8-29.2-75.9C0.4,59.8,37.9,14.9,88.1,3.3
	c0.9-0.2,1.8-0.4,2.8-0.6c1.4-0.3,2.8-0.5,4.2-0.8c0.5-0.1,0.9-0.2,1.4-0.2c1.2-0.2,2.5-0.4,3.7-0.5c0.3,0,0.7-0.1,1-0.1
	c0.4,0,0.9-0.1,1.3-0.1c0.8-0.1,1.5-0.1,2.3-0.2c0.1,0,0.2,0,0.3,0c2.9-0.2,5.8-0.3,8.7-0.3c2.9,0,5.7,0.1,8.5,0.4
	c0.2,0,0.3,0,0.4,0c0.8,0.1,1.6,0.1,2.4,0.2c0.8,0.1,1.5,0.2,2.3,0.3c0.6,0.1,1.3,0.2,1.9,0.2c1.7,0.2,3.4,0.5,5.1,0.9
	C195.8,14.1,236.1,73.4,224.4,134.9z"/>
<path class="st0" d="M150.6,120.6L150.6,120.6L150.6,120.6"/>
<path class="st0" d="M198.9,146.6"/>
<path class="st0" d="M172.5,38.6"/>
<path class="st0" d="M169.6,46.3"/>
<path class="st0" d="M133.6,27C133.5,27,133.5,26.9,133.6,27C133.5,26.9,133.5,26.9,133.6,27c-0.1,0-0.1-0.1-0.1-0.1
	c0,0,0,0-0.1-0.1c0-0.1-0.1-0.1-0.1-0.2c0,0,0.1,0.1,0.1,0.1C133.4,26.8,133.5,26.9,133.6,27z"/>
<path class="st0" d="M118.8,27.8c-0.2,0.5-0.4,0.9-0.5,1.4c-0.1,0.4-0.2,0.8-0.2,1.2c0-0.4,0.1-0.9,0.2-1.3
	C118.4,28.7,118.5,28.2,118.8,27.8z"/>
<path class="st0" d="M121.8,24.4c-0.2,0.2-0.5,0.3-0.7,0.5c0.2-0.2,0.4-0.3,0.6-0.4C121.7,24.4,121.7,24.4,121.8,24.4z"/>
<path class="st0" d="M123.2,23.7c-0.3,0.1-0.5,0.2-0.8,0.4C122.7,23.9,122.9,23.8,123.2,23.7z"/>
<path class="st0" d="M134.8,31.5c0,0.2,0,0.4,0,0.5c0,0.6-0.1,1.2-0.3,1.8c-1.2,4.4-5.8,7-10.3,5.8c-3.6-1-5.9-4-6.2-7.5
	c0.3,3.4,2.6,6.4,6.1,7.4c0.4,0.1,0.9,0.2,1.3,0.2c0.2,0,0.3,0,0.4,0c0.4,0,0.8,0,1.1,0c3.4-0.3,6.5-2.6,7.4-6.1
	c0.2-0.7,0.3-1.5,0.3-2.2c0-0.7,0-1.4-0.2-2.1c0.1,0.4,0.2,0.9,0.3,1.5C134.8,31.1,134.8,31.3,134.8,31.5z"/>
<path class="st2" d="M134.8,31.5c0,0.2,0,0.4,0,0.5c0,0.5-0.1,1.1-0.3,1.7c-1,3.5-4.1,5.8-7.5,6.1c-0.4,0-0.8,0-1.1,0
	c-0.1,0-0.3,0-0.4,0c-0.4-0.1-0.8-0.1-1.2-0.2c-4.4-1.2-7-5.8-5.8-10.3c0.7-2.6,2.6-4.6,4.9-5.5c0.2-0.1,0.3-0.1,0.5-0.2
	c0.4-0.1,0.9-0.3,1.3-0.3c0.2,0,0.5-0.1,0.7-0.1h1.9c0.1,0,0.2,0,0.4,0.1c0.2,0,0.3,0.1,0.5,0.1c0.1,0,0.2,0,0.2,0.1h0.1
	c0.2,0,0.4,0.1,0.6,0.2c0.2,0.1,0.3,0.1,0.5,0.2c0.1,0,0.2,0.1,0.3,0.2c0.5,0.3,1,0.6,1.5,1c0.2,0.1,0.3,0.3,0.5,0.4
	s0.3,0.3,0.5,0.5c0.1,0.1,0.2,0.2,0.3,0.4c0.1,0.1,0.2,0.2,0.3,0.4c0,0,0,0,0,0v0.1c0,0,0,0,0.1,0.1c0,0,0,0.1,0.1,0.1c0,0,0,0,0,0
	c0,0.1,0.1,0.2,0.2,0.2c0.1,0.1,0.2,0.3,0.2,0.4c0.3,0.6,0.6,1.2,0.7,1.9c0.1,0.4,0.2,0.9,0.2,1.4C134.8,31.1,134.8,31.3,134.8,31.5
	z"/>
<path class="st0" d="M118.8,27.8c-0.2,0.5-0.4,0.9-0.5,1.4c-0.1,0.4-0.2,0.8-0.2,1.2c0-0.4,0.1-0.9,0.2-1.3
	C118.4,28.7,118.5,28.2,118.8,27.8z"/>
<path class="st0" d="M121.7,24.5c0,0,0.1,0,0.1-0.1c-0.2,0.2-0.5,0.3-0.7,0.5C121.2,24.7,121.5,24.6,121.7,24.5z"/>
<path class="st0" d="M123.2,23.7c-0.3,0.1-0.5,0.2-0.8,0.4C122.7,23.9,122.9,23.8,123.2,23.7z"/>
<path class="st0" d="M134.8,31.5c0,0.2,0,0.4,0,0.5c0,0.6-0.1,1.2-0.3,1.8c-1.2,4.4-5.8,7-10.3,5.8c-3.6-1-5.9-4-6.2-7.5
	c0.3,3.4,2.6,6.4,6.1,7.4c0.4,0.1,0.9,0.2,1.3,0.2c-0.4-0.1-0.8-0.1-1.2-0.2c-4.4-1.2-7-5.8-5.8-10.3c0.7-2.6,2.6-4.6,4.9-5.5
	c0.2-0.1,0.3-0.1,0.5-0.2c0.4-0.1,0.9-0.3,1.3-0.3c0.2,0,0.5-0.1,0.7-0.1h1.9c0.1,0,0.2,0,0.4,0.1c0.2,0,0.3,0.1,0.5,0.1
	c0.1,0,0.2,0,0.2,0.1h0.1c0.2,0,0.4,0.1,0.6,0.2c0.2,0.1,0.3,0.1,0.5,0.2c0.1,0,0.2,0.1,0.3,0.2c0.5,0.3,1,0.6,1.5,1
	c0.2,0.1,0.3,0.3,0.5,0.4s0.3,0.3,0.5,0.5c0.1,0.1,0.2,0.2,0.3,0.4c0.1,0.1,0.2,0.2,0.3,0.4c0,0,0,0,0,0c0.1,0.1,0.1,0.2,0.2,0.3
	c0,0,0,0-0.1,0c0,0.1,0.1,0.2,0.2,0.2c0.1,0.1,0.2,0.3,0.2,0.4c0.3,0.6,0.6,1.2,0.7,1.9c0.1,0.4,0.2,0.9,0.2,1.4
	C134.8,31.1,134.8,31.3,134.8,31.5z"/>
<path class="st0" d="M165.2,191.5c0,0-0.1,0.1-0.2,0.1C165,191.6,165.1,191.5,165.2,191.5z"/>
<path class="st0" d="M185.4,200.9c-0.5,0.4-1,0.8-1.5,1.2c-0.7,0.6-1.4,1.1-2.1,1.7c0,0,0,0,0,0c-1.3,1-2.6,1.9-4,2.9
	c-0.5,0.3-0.9,0.6-1.4,0.9c-0.9,0.6-1.8,1.2-2.8,1.8c-0.9,0.6-1.9,1.2-2.8,1.7c-0.4,0.3-0.9,0.5-1.3,0.8c0,0-0.1,0-0.1,0.1
	c0,0-0.1,0-0.1,0.1c-0.8,0.5-1.7,1-2.6,1.4c-0.3,0.1-0.5,0.3-0.8,0.4c-0.7,0.4-1.3,0.7-2,1.1c-0.1,0-0.1,0.1-0.2,0.1
	c-1,0.5-2.1,1-3.1,1.5c-0.5,0.2-1.1,0.5-1.6,0.7c-0.5,0.2-1,0.5-1.6,0.7c0,0,0,0-0.1,0c-0.8,0.3-1.5,0.6-2.3,0.9
	c-0.2,0.1-0.3,0.1-0.4,0.2c-0.8,0.3-1.6,0.6-2.4,0.9c-0.1,0-0.2,0.1-0.3,0.1c-12,4.4-25,6.7-38.6,6.7c-7.3,0-14.4-0.7-21.3-2
	l71.7-32.7l0.2-0.1l0.3-0.1l0.6-0.2c0.3-0.1,0.7-0.3,1.1-0.5c15.8-6.3,27.6-23.7,34.2-47.9c0-0.1,0.1-0.3,0.2-0.4v-0.2
	c1.4-5,2.1-10.1,2.1-15.2c0-28.2-20.9-51.5-47.8-54.2c-9-1-18.1,0.5-26.4,4.1l-0.3,0.1l-0.4,0.2c-7,2-13.7,4.8-20,8.4
	c0,0-0.1,0-0.1,0.1c-0.2,0.1-0.4,0.2-0.6,0.4c-1.5,0.9-2.7,1.7-4,2.5c-1.1,0.6-2.2,1.3-3.6,2c-0.3,0.1-0.5,0.3-0.8,0.4
	c-0.2,0.1-0.5,0.2-0.7,0.3h-0.1c-0.3,0.1-0.6,0.3-0.8,0.4c-0.5,0.2-1.1,0.5-1.6,0.7s-1.1,0.4-1.7,0.6c-1.1,0.4-2.3,0.7-3.4,0.9
	c-1,0.1-2.1,0-3.1-0.1c1,0.1,2,0.1,3,0c-1,0-2-0.1-3-0.2c0,0,0,0,0,0c-0.1,0-0.1,0-0.1,0c-0.3,0-0.6-0.1-0.9-0.1
	c-0.3-0.1-0.6-0.1-0.9-0.2c0,0-0.1,0-0.2-0.1c-0.1,0-0.3-0.1-0.4-0.1c-0.2,0-0.3-0.1-0.5-0.1c-0.1,0-0.2,0-0.4-0.1
	c-0.1,0-0.2-0.1-0.3-0.1c-0.3-0.1-0.5-0.2-0.8-0.3c0,0-0.1,0-0.1,0c-0.9-0.3-1.8-0.6-2.6-1c-0.1-0.1-0.3-0.1-0.4-0.2
	c-1.3-0.6-2.5-1.4-3.7-2.3c0,0,0,0-0.1-0.1c-0.1-0.1-0.2-0.2-0.3-0.2c-0.1-0.1-0.2-0.2-0.3-0.2c-0.4-0.4-0.8-0.7-1.1-1.1
	c-0.4-0.5-0.9-0.9-1.3-1.4c-0.2-0.2-0.4-0.4-0.5-0.7c-0.1-0.2-0.3-0.4-0.4-0.6c-0.9-1.4-1.7-3-2.3-4.7c-0.1-0.4-0.3-0.8-0.4-1.2
	C69,78.9,69,78.3,69,78v-0.1c0-0.3-0.1-0.6-0.1-0.9v-0.1c0-0.3-0.1-0.7-0.1-1.1v-1.1c0-5,2.1-9.6,5.6-13.1c0.7-0.7,1.4-1.3,2.2-1.9
	c3.7-2.8,8.5-4.4,13.7-4.4h0.8l1.2,0.1c0,0,0,0,0.1,0c0.2,0,0.3,0,0.5,0.1l39.8,2.3c0.9,0.1,1.9,0.2,2.8,0.2
	c5.3,0,10.5-1.7,14.7-4.8c0.3-0.3,0.6-0.5,1-0.8c0.4-0.3,0.8-0.7,1.2-1.1c0,0,0.1-0.1,0.2-0.1c0.4-0.4,0.7-0.7,1.1-1.1
	c0.2-0.2,0.3-0.4,0.5-0.6c0.2-0.2,0.3-0.4,0.5-0.7s0.4-0.5,0.7-0.9c0.3-0.4,0.5-0.8,0.8-1.2h13.4c4.5,0,8.1,3.6,8.1,8.1
	c0,1.1-0.2,2.2-0.7,3.2c4-0.5,6.8-4.1,6.3-8.1c-0.4-3.4-3.1-5.9-6.3-6.3c2.2-0.5,4-1.9,4.9-3.9c0.2-0.3,0.3-0.7,0.4-1
	c1-2.8,0.1-6.1-2.4-8v1.5c0,0.2,0,0.4-0.1,0.6c-0.6,3.1-2.9,5.7-6.1,6.4c-0.3,0.1-0.7,0.1-1,0.2h-1.6c-0.3,0-0.7-0.1-1-0.2h-11
	c0.1-0.3,0.2-0.7,0.2-1c0.1-0.2,0.1-0.5,0.1-0.5v-0.6c0,0,0-0.4,0-0.8v-1.1c-14.1-3-20.2-8.1-23.2-12.5c-1.3-1.9-4.1-6.9-9.9-9.3
	c-2.2-0.9-4.3-1.1-5.6-1.3c-22.8-3-43.9,5.6-43.9,5.6c-29.2,5.6-51.2,29.2-51.2,57.5c0,4,0.4,7.9,1.3,11.7c0.1,0.5,0.2,1.1,0.4,1.6
	c0.1,0.5,0.2,0.9,0.4,1.4c0.1,0.5,0.3,0.9,0.4,1.4c0.2,0.8,0.5,1.5,0.8,2.3c0.1,0.4,0.3,0.8,0.4,1.1c0,0.1,0,0.1,0.1,0.2
	c0.1,0.3,0.2,0.6,0.3,0.9c0.1,0.1,0.1,0.2,0.1,0.3v0.1c0.1,0.2,0.2,0.4,0.3,0.7c0.2,0.4,0.3,0.7,0.5,1.1c0.2,0.4,0.3,0.7,0.5,1.1
	c0,0.1,0.1,0.2,0.2,0.3c0.1,0.2,0.2,0.5,0.4,0.7c0.2,0.3,0.4,0.7,0.5,1c0,0.1,0.1,0.2,0.1,0.3c0.2,0.3,0.3,0.6,0.5,0.9
	s0.3,0.5,0.5,0.8c0.1,0.1,0.2,0.3,0.2,0.4c0.1,0.1,0.1,0.2,0.2,0.4c0,0,0,0.1,0.1,0.1c0,0.1,0.1,0.1,0.1,0.2c0.2,0.3,0.4,0.7,0.6,1
	c0.1,0.1,0.1,0.2,0.2,0.3c0.1,0.1,0.2,0.3,0.3,0.4l0.1,0.1c0.3,0.4,0.5,0.8,0.8,1.2c0.1,0.1,0.1,0.2,0.2,0.2
	c0.2,0.2,0.3,0.4,0.5,0.6c0.2,0.2,0.3,0.4,0.5,0.7c0,0,0,0.1,0.1,0.1c0.1,0.1,0.2,0.3,0.3,0.4c0.2,0.2,0.4,0.5,0.6,0.8
	c0.1,0.1,0.1,0.2,0.2,0.2c0.1,0.1,0.2,0.2,0.3,0.3c0.2,0.2,0.4,0.4,0.5,0.6c0.1,0.1,0.1,0.2,0.2,0.2c6,7,13.7,12.8,22.6,16.7
	c0.5,0.2,1.1,0.5,1.6,0.7c0.5,0.2,1.1,0.4,1.6,0.7c0.5,0.2,1.1,0.4,1.7,0.6c0.5,0.2,1,0.4,1.5,0.5c0.2,0.1,0.3,0.1,0.5,0.2
	c0.5,0.2,1,0.3,1.5,0.4c0.5,0.2,1,0.3,1.5,0.4l0.6,0.1c0.5,0.1,1,0.2,1.4,0.4c0.5,0.1,0.9,0.2,1.4,0.3c0.3,0.1,0.7,0.1,1,0.2
	c0.3,0.1,0.7,0.2,1,0.2c0.5,0.1,1,0.2,1.5,0.3c0.3,0,0.6,0.1,1,0.2c0.4,0.1,0.8,0.1,1.3,0.2c0.6,0.1,1.2,0.2,1.8,0.2
	c0.5,0.1,1.1,0.1,1.6,0.2c0.6,0,1.2,0.1,1.8,0.1c1.4,0.1,2.8,0.1,4.2,0.1h5.4l0.9-0.1c1.7-0.1,3.4-0.4,5.2-0.6
	c8.6-0.8,15.1-1.9,20.6-6c5-3.8,6.5-8.1,12.8-9.6c1-0.2,1.9-0.3,2.9-0.4h1.4c3.3,0,6.5,0.7,9.2,2c0.2,0.1,0.3,0.1,0.5,0.2
	c0,0,0.1,0,0.2,0.1c0.2,0.1,0.4,0.2,0.6,0.3c0,0,0,0,0.1,0c0.2,0.1,0.4,0.2,0.5,0.3c0.1,0,0.2,0.1,0.3,0.2c0,0,0.1,0,0.1,0.1
	c0.1,0,0.1,0.1,0.2,0.1c0.2,0.1,0.4,0.3,0.6,0.4c0.2,0.1,0.3,0.2,0.5,0.4c0.2,0.1,0.3,0.2,0.5,0.4c0.1,0.1,0.2,0.2,0.3,0.3l1.5,1.5
	c0.2,0.2,0.4,0.4,0.6,0.6c0.3,0.4,0.6,0.7,0.9,1.1c0.5,0.7,1,1.5,1.4,2.3c1.3,2.4,2,5.1,2,8v1.4c-0.6,6.8-5.7,12.1-11.9,15.4
	l-0.4,0.2c-11.3,5.1-22.8,9.8-34.5,14c-27,9.6-54.8,17.2-82.9,22.7c-18.8-20.8-29.2-47.8-29.2-75.9C0.4,59.8,37.9,14.9,88.1,3.3
	c0.9-0.2,1.8-0.4,2.8-0.6c1.4-0.3,2.8-0.5,4.2-0.8c0.5-0.1,0.9-0.2,1.4-0.2c5.5-0.8,11.2-1.3,17-1.3c3.9,0,7.8,0.2,11.6,0.6
	c0.8,0.1,1.5,0.2,2.3,0.3c0.6,0.1,1.3,0.2,1.9,0.2c19.8,2.8,37.9,10.6,53.1,22.2c1.3,1,2.6,2,3.9,3.1c6.3,5.3,12.1,11.3,17.1,17.9
	c14.6,19.1,23.3,43,23.3,68.8c0,34.9-15.8,66.1-40.6,86.8C185.8,200.6,185.6,200.8,185.4,200.9z"/>
<path class="st0" d="M95,1.9c-0.7,0.1-1.4,0.2-2.1,0.4C93.6,2.2,94.3,2,95,1.9z"/>
<path class="st0" d="M118.3,29.3c-0.1,0.4-0.2,0.8-0.2,1.2c0-0.4,0.1-0.9,0.2-1.3c0.1-0.5,0.3-0.9,0.5-1.3
	C118.5,28.3,118.4,28.8,118.3,29.3z"/>
<path class="st0" d="M124.1,39.5c0.4,0.1,0.9,0.2,1.3,0.2C125,39.6,124.6,39.6,124.1,39.5c-4.3-1.2-6.9-5.8-5.7-10.3
	c0.7-2.6,2.6-4.6,4.9-5.5c0.2-0.1,0.3-0.1,0.5-0.2c0.4-0.1,0.9-0.3,1.3-0.3c0.2,0,0.5-0.1,0.7-0.1h1.9c0.1,0,0.2,0,0.4,0.1
	c0.2,0,0.3,0.1,0.5,0.1c0.1,0,0.2,0,0.2,0.1h0.1c0.2,0,0.4,0.1,0.6,0.2c0.2,0.1,0.3,0.1,0.5,0.2c0.1,0,0.2,0.1,0.3,0.2
	c0.5,0.3,1,0.6,1.5,1c0.2,0.1,0.3,0.3,0.5,0.4s0.3,0.3,0.5,0.5c0.1,0.1,0.2,0.2,0.3,0.4c0.1,0.1,0.2,0.2,0.3,0.4c0,0,0,0,0,0
	c0.1,0.1,0.1,0.2,0.2,0.3c0,0,0,0-0.1,0c0,0.1,0.1,0.2,0.2,0.2c0.1,0.1,0.2,0.3,0.2,0.4c0.3,0.6,0.6,1.2,0.7,1.9
	c0.1,0.4,0.2,0.9,0.2,1.4c0,0.2,0,0.4,0,0.6c0,0.2,0,0.4,0,0.5c0,0.6-0.1,1.2-0.3,1.8c-1.2,4.4-5.8,7-10.3,5.8c-3.6-1-5.9-4-6.2-7.5
	C118.3,35.5,120.6,38.5,124.1,39.5z"/>
<path class="st0" d="M165,191.6c0,0,0.1-0.1,0.2-0.1C165.2,191.5,165.1,191.6,165,191.6z"/>
<path class="st0" d="M157.6,217.9C157.6,217.9,157.5,217.9,157.6,217.9c-0.1,0.1-0.1,0.1-0.2,0.1c0,0,0,0,0,0
	c-0.7,0.3-1.5,0.6-2.2,0.9c0,0,0,0,0,0c-0.2,0.1-0.3,0.1-0.4,0.2c-0.3,0.1-0.5,0.2-0.8,0.3c-1.1,0.4-2.2,0.8-3.3,1.2
	c-1.1,0.4-2.2,0.8-3.3,1.1c-0.8,0.2-1.5,0.5-2.3,0.7c-0.4,0.1-0.9,0.3-1.3,0.4c-0.7,0.2-1.3,0.4-2,0.5c-9,2.3-18.5,3.6-28.3,3.6
	c-7.3,0-14.4-0.7-21.3-2l0,0l71.7-32.7l0.2-0.1l0.3-0.1l0.6-0.2c0.3-0.1,0.7-0.3,1.1-0.5c15.8-6.3,27.6-23.7,34.2-47.9
	c0-0.1,0.1-0.3,0.2-0.4v-0.2c1.4-5,2.1-10.1,2.1-15.2c0-28.2-20.9-51.5-47.8-54.2c-9-1-18.1,0.5-26.4,4.1l-0.3,0.1l-0.4,0.2
	c-7,2-13.7,4.8-20,8.4c0,0-0.1,0-0.1,0.1c-0.2,0.1-0.4,0.2-0.6,0.4c-1.5,0.9-2.7,1.7-4,2.5c-1.1,0.6-2.2,1.3-3.6,2
	c-0.3,0.1-0.5,0.3-0.8,0.4c-0.2,0.1-0.5,0.2-0.7,0.3h-0.1c-0.3,0.1-0.6,0.3-0.8,0.4c-0.5,0.2-1.1,0.5-1.6,0.7s-1.1,0.4-1.7,0.6
	c-1.1,0.4-2.3,0.7-3.4,0.9c-1,0.1-2.1,0-3.1-0.1c1,0.1,2,0.1,3,0c-1,0-2-0.1-3-0.2c0,0,0,0,0,0c-0.1,0-0.1,0-0.1,0
	c-0.3,0-0.6-0.1-0.9-0.1c-0.3-0.1-0.6-0.1-0.9-0.2c0,0-0.1,0-0.2-0.1c-0.1,0-0.3-0.1-0.4-0.1c-0.2,0-0.3-0.1-0.5-0.1
	c-0.1,0-0.2,0-0.4-0.1c-0.1,0-0.2-0.1-0.3-0.1c-0.3-0.1-0.5-0.2-0.8-0.3c0,0-0.1,0-0.1,0c-0.9-0.3-1.8-0.6-2.6-1
	c-0.1-0.1-0.3-0.1-0.4-0.2c-1.3-0.6-2.5-1.4-3.7-2.3c0,0,0,0-0.1-0.1c-0.1-0.1-0.2-0.2-0.3-0.2c-0.1-0.1-0.2-0.2-0.3-0.2
	c-0.4-0.4-0.8-0.7-1.1-1.1c-0.4-0.5-0.9-0.9-1.3-1.4c-0.2-0.2-0.4-0.4-0.5-0.7c-0.1-0.2-0.3-0.4-0.4-0.6c-0.9-1.4-1.7-3-2.3-4.7
	c-0.1-0.4-0.3-0.8-0.4-1.2C69,78.9,69,78.3,69,78v-0.1c0-0.3-0.1-0.6-0.1-0.9v-0.1c0-0.3-0.1-0.7-0.1-1.1v-1.1c0-5,2.1-9.6,5.6-13.1
	c0.7-0.7,1.4-1.3,2.2-1.9c3.7-2.8,8.5-4.4,13.7-4.4h0.8l1.2,0.1c0,0,0,0,0.1,0c0.2,0,0.3,0,0.5,0.1l39.8,2.3
	c0.9,0.1,1.9,0.2,2.8,0.2c5.3,0,10.5-1.7,14.7-4.8c0.3-0.3,0.6-0.5,1-0.8c0.4-0.3,0.8-0.7,1.2-1.1c0,0,0.1-0.1,0.2-0.1
	c0.4-0.4,0.7-0.7,1.1-1.1c0.2-0.2,0.3-0.4,0.5-0.6c0.2-0.2,0.3-0.4,0.5-0.7s0.4-0.5,0.7-0.9c0.3-0.4,0.5-0.8,0.8-1.2h13.4
	c4.5,0,8.1,3.6,8.1,8.1c0,1.1-0.2,2.2-0.7,3.2c4-0.5,6.8-4.1,6.3-8.1c-0.4-3.4-3.1-5.9-6.3-6.3c2.2-0.5,4-1.9,4.9-3.9
	c0.2-0.3,0.3-0.7,0.4-1c1-2.8,0.1-6.1-2.4-8v1.5c0,0.2,0,0.4-0.1,0.6c-0.6,3.1-2.9,5.7-6.1,6.4c-0.3,0.1-0.7,0.1-1,0.2h-1.6
	c-0.3,0-0.7-0.1-1-0.2h-11c0.1-0.3,0.2-0.7,0.2-1c0.1-0.2,0.1-0.5,0.1-0.5v-0.6c0,0,0-0.4,0-0.8v-1.1c-14.1-3-20.2-8.1-23.2-12.5
	c-1.3-1.9-4.1-6.9-9.9-9.3c-2.2-0.9-4.3-1.1-5.6-1.3c-22.8-3-43.9,5.6-43.9,5.6c-29.2,5.6-51.2,29.2-51.2,57.5c0,4,0.4,7.9,1.3,11.7
	c0.1,0.5,0.2,1.1,0.4,1.6c0.1,0.5,0.2,0.9,0.4,1.4c0.1,0.5,0.3,0.9,0.4,1.4c0.2,0.8,0.5,1.5,0.8,2.3c0.1,0.4,0.3,0.8,0.4,1.1
	c0,0.1,0,0.1,0.1,0.2c0.1,0.3,0.2,0.6,0.3,0.9c0.1,0.1,0.1,0.2,0.1,0.3v0.1c0.1,0.2,0.2,0.4,0.3,0.7c0.2,0.4,0.3,0.7,0.5,1.1
	c0.2,0.4,0.3,0.7,0.5,1.1c0,0.1,0.1,0.2,0.2,0.3c0.1,0.2,0.2,0.5,0.4,0.7c0.2,0.3,0.4,0.7,0.5,1c0,0.1,0.1,0.2,0.1,0.3
	c0.2,0.3,0.3,0.6,0.5,0.9s0.3,0.5,0.5,0.8c0.1,0.1,0.2,0.3,0.2,0.4c0.1,0.1,0.1,0.2,0.2,0.4c0,0,0,0.1,0.1,0.1
	c0,0.1,0.1,0.1,0.1,0.2c0.2,0.3,0.4,0.7,0.6,1c0.1,0.1,0.1,0.2,0.2,0.3c0.1,0.1,0.2,0.3,0.3,0.4l0.1,0.1c0.3,0.4,0.5,0.8,0.8,1.2
	c0.1,0.1,0.1,0.2,0.2,0.2c0.2,0.2,0.3,0.4,0.5,0.6c0.2,0.2,0.3,0.4,0.5,0.7c0,0,0,0.1,0.1,0.1c0.1,0.1,0.2,0.3,0.3,0.4
	c0.2,0.2,0.4,0.5,0.6,0.8c0.1,0.1,0.1,0.2,0.2,0.2c0.1,0.1,0.2,0.2,0.3,0.3c0.2,0.2,0.4,0.4,0.5,0.6c0.1,0.1,0.1,0.2,0.2,0.2
	c6,7,13.7,12.8,22.6,16.7c0.5,0.2,1.1,0.5,1.6,0.7c0.5,0.2,1.1,0.4,1.6,0.7c0.5,0.2,1.1,0.4,1.7,0.6c0.5,0.2,1,0.4,1.5,0.5
	c0.2,0.1,0.3,0.1,0.5,0.2c0.5,0.2,1,0.3,1.5,0.4c0.5,0.2,1,0.3,1.5,0.4l0.6,0.1c0.5,0.1,1,0.2,1.4,0.4c0.5,0.1,0.9,0.2,1.4,0.3
	c0.3,0.1,0.7,0.1,1,0.2c0.3,0.1,0.7,0.2,1,0.2c0.5,0.1,1,0.2,1.5,0.3c0.3,0,0.6,0.1,1,0.2c0.4,0.1,0.8,0.1,1.3,0.2
	c0.6,0.1,1.2,0.2,1.8,0.2c0.5,0.1,1.1,0.1,1.6,0.2c0.6,0,1.2,0.1,1.8,0.1c1.4,0.1,2.8,0.1,4.2,0.1h5.4l0.9-0.1
	c1.7-0.1,3.4-0.4,5.2-0.6c8.6-0.8,15.1-1.9,20.6-6c5-3.8,6.5-8.1,12.8-9.6c1-0.2,1.9-0.3,2.9-0.4h1.4c3.3,0,6.5,0.7,9.2,2
	c0.2,0.1,0.3,0.1,0.5,0.2c0,0,0.1,0,0.2,0.1c0.2,0.1,0.4,0.2,0.6,0.3c0,0,0,0,0.1,0c0.2,0.1,0.4,0.2,0.5,0.3c0.1,0,0.2,0.1,0.3,0.2
	c0,0,0.1,0,0.1,0.1c0.1,0,0.1,0.1,0.2,0.1c0.2,0.1,0.4,0.3,0.6,0.4c0.2,0.1,0.3,0.2,0.5,0.4c0.2,0.1,0.3,0.2,0.5,0.4
	c0.1,0.1,0.2,0.2,0.3,0.3l1.5,1.5c0.2,0.2,0.4,0.4,0.6,0.6c0.3,0.4,0.6,0.7,0.9,1.1c0.5,0.7,1,1.5,1.4,2.3c1.3,2.4,2,5.1,2,8v1.4
	c-0.6,6.8-5.7,12.1-11.9,15.4l-0.4,0.2c-11.3,5.1-22.8,9.8-34.5,14c-27,9.6-54.8,17.2-82.9,22.7c-18.8-20.8-29.2-47.8-29.2-75.9
	C0.4,59.8,37.9,14.9,88.1,3.3c0.9-0.2,1.8-0.4,2.8-0.6c1.4-0.3,2.8-0.5,4.2-0.8c0.5-0.1,0.9-0.2,1.4-0.2c0,0,0,0,0.1,0
	c1.2-0.2,2.4-0.4,3.6-0.5c0.3,0,0.7-0.1,1-0.1c0.4,0,0.9-0.1,1.3-0.1c0.8-0.1,1.5-0.1,2.3-0.2c0.1,0,0.2,0,0.3,0
	c2.8-0.2,5.6-0.3,8.5-0.3c2.9,0,5.8,0.1,8.7,0.3c0.2,0,0.3,0,0.4,0c0.8,0.1,1.6,0.1,2.4,0.2c0.1,0,0.3,0,0.4,0
	c13.8,1.4,26.8,5.4,38.6,11.3c0,0,0,0,0,0c1,0.5,2,1,3,1.6c0.1,0.1,0.3,0.1,0.4,0.2c0.9,0.5,1.8,1,2.7,1.5c0.2,0.1,0.4,0.3,0.6,0.4
	c0.8,0.5,1.6,1,2.4,1.5c0.3,0.2,0.6,0.4,0.9,0.5c0.7,0.5,1.5,0.9,2.2,1.4c0.4,0.3,0.8,0.5,1.2,0.8c0.6,0.4,1.2,0.8,1.9,1.3
	c1,0.7,2,1.4,3,2.2c1.3,1,2.6,2,3.9,3.1c6.3,5.3,12.1,11.3,17.1,17.9c14.6,19.1,23.3,42.9,23.3,68.8c0,2.2-0.1,4.4-0.2,6.6
	c0,0.2,0,0.3,0,0.5c-0.2,3.3-0.5,6.5-1,9.7c0,0.1,0,0.1,0,0.2c-0.2,1.1-0.3,2.2-0.5,3.2c0,0,0,0,0,0c-0.6,3.3-1.3,6.5-2.2,9.7
	c0,0,0,0,0,0C213.4,177.1,189.2,204.5,157.6,217.9z"/>
<ellipse class="st0" cx="113.4" cy="114" rx="112.6" ry="112.9"/>
</svg>
