<svg id="Capa_3" data-name="Capa 3" xmlns="http://www.w3.org/2000/svg" viewBox="0 0 227.28 227.28"><defs><style>.cls-1{fill:none;}.cls-1,.cls-2{stroke:#fff;stroke-miterlimit:10;stroke-width:0.75px;}.cls-2{fill:#fff;}</style></defs><path class="cls-1" d="M163.56,86a23.82,23.82,0,0,1-2.81-.16Z" transform="translate(-28.09 -28.09)"/><path class="cls-1" d="M164.86,60.25a7.71,7.71,0,0,1-.31,2.21,8.35,8.35,0,1,1,.31-2.21Z" transform="translate(-28.09 -28.09)"/><line class="cls-1" x1="92.84" y1="55.39" x2="90.14" y2="55.22"/><path class="cls-1" d="M164.86,60.25a7.71,7.71,0,0,1-.31,2.21,8.35,8.35,0,1,1,.31-2.21Z" transform="translate(-28.09 -28.09)"/><path class="cls-1" d="M108,119.86a17.84,17.84,0,0,0,10.25,2.35A23.16,23.16,0,0,1,108,119.86Zm14.07,42.21.47,0,.45,0Z" transform="translate(-28.09 -28.09)"/><path class="cls-1" d="M122.06,162.07l.47,0,.45,0Z" transform="translate(-28.09 -28.09)"/><path class="cls-2" d="M182.88,101.23a52.28,52.28,0,0,0-26.4,4.07l-.28.12,0,0L135.8,114c-3.68,2.16-5.42,3.63-9.93,5.6a31.89,31.89,0,0,1-7.63,2.64A17.84,17.84,0,0,1,108,119.86a3.29,3.29,0,0,1-.42-.21A19.93,19.93,0,0,1,98,109.21c-.12-.31-.23-.62-.34-.94s-.26-.81-.37-1.23-.15-.64-.22-1a.52.52,0,0,0,0-.11c0-.3-.1-.6-.14-.9,0,0,0-.09,0-.13,0-.35-.08-.71-.1-1.06s0-.73,0-1.11c0-10.74,9.62-19.45,21.5-19.45a22,22,0,0,1,2.7.16l39.81,2.33,2.81.16a24.62,24.62,0,0,0,14.59-4.71c.36-.26.69-.53,1-.8s.83-.7,1.22-1.07a1.06,1.06,0,0,0,.15-.15c.37-.35.72-.7,1.06-1.08l0,0s0,0,0,0l0,0c.17-.2.36-.41.52-.62s.37-.44.55-.67.46-.61.67-.92.53-.77.78-1.18h13.42a8.09,8.09,0,0,1,8.09,8.08,8.19,8.19,0,0,1-.67,3.21,7.2,7.2,0,0,0-1.87-14.16,6.55,6.55,0,0,0-1.41.15v-.35a7.09,7.09,0,0,0,1.68.2,7.21,7.21,0,0,0,4.42-12.92c0,.2,0,.42,0,.63a8.08,8.08,0,0,1-6.25,7.86,7.34,7.34,0,0,1-1.83.22,7.26,7.26,0,0,1-1.82-.22H187c.05-.32.11-.65.15-1,0-.16,0-.34.07-.51s0-.08,0-.12,0-.1,0-.15a1.45,1.45,0,0,0,0-.3c0-.26,0-.52.05-.77s0-.71,0-1.06C187.39,51,176.73,41,163.56,41a174.11,174.11,0,0,0-58.83,5h0c-29.25,5.64-51.18,29.22-51.18,57.45,0,32.43,29,58.72,64.7,58.72h1.1c.38,0,.74,0,1.11,0H121l.54,0h.08c.15,0,.3,0,.45,0l.92,0,.64,0,.86-.07c11.21-.91,19.24-1.54,25.77-6.49,5-3.82,6.45-8.11,12.77-9.59l.71-.13c.41-.07.89-.14,1.45-.19.23,0,.47,0,.73-.06.42,0,.88,0,1.35,0,11.12,0,20.13,8.27,20.13,18.45,0,.23,0,.48,0,.71s0,.46,0,.69a18.57,18.57,0,0,1-11.87,15.45l-.38.17q-17,7.69-34.53,14a575.52,575.52,0,0,1-82.94,22.69,112.89,112.89,0,0,0,62.43,35.34L192,220.08l.22-.07.27-.09.61-.23c16.44-6,28.63-23.75,35.42-48.78,0-.07,0-.13,0-.19a55.11,55.11,0,0,0,2.12-15.24C230.66,127.25,209.73,104,182.88,101.23Zm-31-48a8.39,8.39,0,0,1,13,7,7.71,7.71,0,0,1-.31,2.21,8.38,8.38,0,1,1-12.72-9.2Z" transform="translate(-28.09 -28.09)"/><path class="cls-1" d="M164.86,60.25a7.71,7.71,0,0,1-.31,2.21,8.35,8.35,0,1,1,.31-2.21Z" transform="translate(-28.09 -28.09)"/><path class="cls-1" d="M141.73,28.47a113.25,113.25,0,0,0-84.11,189.1,575.52,575.52,0,0,0,82.94-22.69q17.53-6.31,34.53-14l.38-.17c6.15-3.32,11.24-8.61,11.87-15.45,0-.23,0-.46,0-.69s0-.48,0-.71c0-10.18-9-18.45-20.13-18.45-.47,0-.93,0-1.35,0l-.73.06c-.56.05-1,.12-1.45.19l-.71.13c-6.32,1.48-7.73,5.77-12.77,9.59-6.53,5-14.56,5.58-25.77,6.49l-.86.07-.64,0-.45,0-.47,0c-.15,0-.3,0-.45,0h-.08l-.54,0h-.54c-.37,0-.73,0-1.11,0h-1.1c-35.73,0-64.7-26.29-64.7-58.72,0-28.23,21.93-51.81,51.18-57.45h0a174.11,174.11,0,0,1,58.83-5c13.17,0,23.83,10.08,23.83,22.5,0,.35,0,.7,0,1.06s0,.51-.05.77a1.45,1.45,0,0,1,0,.3s0,.1,0,.15,0,.08,0,.12,0,.35-.07.51c0,.34-.1.67-.15,1h11a7.26,7.26,0,0,0,1.82.22,7.34,7.34,0,0,0,1.83-.22,8.08,8.08,0,0,0,6.25-7.86c0-.21,0-.43,0-.63a7.21,7.21,0,0,1-4.42,12.92,7.09,7.09,0,0,1-1.68-.2v.35a6.55,6.55,0,0,1,1.41-.15A7.2,7.2,0,0,1,205.08,86a8.19,8.19,0,0,0,.67-3.21,8.09,8.09,0,0,0-8.09-8.08H184.24c-.25.41-.51.8-.78,1.18s-.44.62-.67.92-.36.45-.55.67-.35.42-.52.62l0,0s0,0,0,0l0,0c-.34.38-.69.73-1.06,1.08a1.06,1.06,0,0,1-.15.15c-.39.37-.8.73-1.22,1.07s-.67.54-1,.8A24.62,24.62,0,0,1,163.56,86l-2.81-.16-39.81-2.33a22,22,0,0,0-2.7-.16c-11.88,0-21.5,8.71-21.5,19.45,0,.38,0,.74,0,1.11s.06.71.1,1.06c0,0,0,.08,0,.13,0,.3.1.6.14.9a.52.52,0,0,1,0,.11c.07.32.14.65.22,1s.23.82.37,1.23.22.63.34.94a21.52,21.52,0,0,0,9.59,10.44,3.29,3.29,0,0,0,.42.21,17.84,17.84,0,0,0,10.25,2.35,31.89,31.89,0,0,0,7.63-2.64c4.51-2,6.25-3.44,9.93-5.6a92.25,92.25,0,0,1,20.35-8.53l0,0,.28-.12a52.28,52.28,0,0,1,26.4-4.07c26.85,2.81,47.78,26,47.78,54.25a55.11,55.11,0,0,1-2.12,15.24c0,.06,0,.12,0,.19-6.79,25-19,42.77-35.42,48.78l-.61.23-.27.09-.22.07-71.92,32.83A113.27,113.27,0,1,0,141.73,28.47Z" transform="translate(-28.09 -28.09)"/><path class="cls-1" d="M200.6,66.68" transform="translate(-28.09 -28.09)"/><path class="cls-1" d="M197.67,74.4" transform="translate(-28.09 -28.09)"/><path class="cls-1" d="M201.68,67.36a7.34,7.34,0,0,1-1.83.22,7.26,7.26,0,0,1-1.82-.22Z" transform="translate(-28.09 -28.09)"/></svg>